<svg
  width="44"
  height="24"
  viewBox="0 0 44 24"
  fill="currentColor"
  xmlns="http://www.w3.org/2000/svg"
>
  <path
    fill="#3aa4df"
    d="M23 2L24.578 19.834L32 22L39.468 19.835L41 2H23ZM36.3 16.722L32.007 17.926H32L27.703 16.722L27.406 13.555H29.514L29.664 15.081L31.999 15.72L34.339 15.08L34.584 12.03H27.314L27.127 10.024H34.767L34.941 8.018H26.924L26.748 6.012H37.254L36.3 16.722Z"
  />
  <path
    fill="#f2672b"
    d="M3 2L4.578 19.824L12 22L19.467 19.825L21 2H3ZM17.049 8.048H9.075L9.247 10.064H16.944L16.318 16.629L12.072 18.01L7.791 16.555L7.503 13.623H9.527L9.687 15.034L12.087 15.849L14.433 15.086L14.73 12.081H7.416L6.854 6.031H17.266L17.049 8.048Z"
  />
</svg>
