<svg width="24" height="24" viewBox="0 0 24 24" fill="none" xmlns="http://www.w3.org/2000/svg">
  <path
    d="M11.8572 0.000196305C10.8676 0.00474436 9.92248 0.0882229 9.09091 0.23376C6.64122 0.66181 6.19645 1.55775 6.19645 3.21003V5.39218H11.9854V6.11956H6.19645H4.02392C2.34149 6.11956 0.868317 7.11974 0.407526 9.02243C-0.12399 11.2033 -0.147566 12.5643 0.407526 14.8415C0.819024 16.5366 1.80174 17.7444 3.48416 17.7444H5.47452V15.1284C5.47452 13.2386 7.12773 11.5716 9.09091 11.5716H14.8731C16.4826 11.5716 17.7676 10.2608 17.7676 8.66207V3.21003C17.7676 1.65835 16.4441 0.49273 14.8731 0.23376C13.8786 0.0700305 12.8468 -0.00435182 11.8572 0.000196305ZM8.72658 1.75526C9.32453 1.75526 9.81284 2.24612 9.81284 2.84967C9.81284 3.45108 9.32453 3.93741 8.72658 3.93741C8.12648 3.93741 7.64031 3.45108 7.64031 2.84967C7.64031 2.24612 8.12648 1.75526 8.72658 1.75526Z"
    fill="#306998"
  />
  <path
    d="M18.4883 6.11963V8.66214C18.4883 10.6333 16.7987 12.2924 14.872 12.2924H9.08977C7.50594 12.2924 6.19531 13.6331 6.19531 15.2019V20.654C6.19531 22.2056 7.55952 23.1183 9.08977 23.5635C10.9222 24.0964 12.6794 24.1927 14.872 23.5635C16.3293 23.1461 17.7664 22.3062 17.7664 20.654V18.4718H11.9842V17.7444H17.7664H20.6609C22.3433 17.7444 22.9702 16.5837 23.5553 14.8416C24.1597 13.048 24.134 11.3233 23.5553 9.02249C23.1396 7.36594 22.3454 6.11963 20.6609 6.11963H18.4883ZM15.2363 19.9266C15.8364 19.9266 16.3226 20.4129 16.3226 21.0143C16.3226 21.6179 15.8364 22.1087 15.2363 22.1087C14.6383 22.1087 14.15 21.6179 14.15 21.0143C14.15 20.4129 14.6383 19.9266 15.2363 19.9266Z"
    fill="#FFD43B"
  />
</svg>
