<svg width="67" height="39" viewBox="0 0 67 39" fill="none" xmlns="http://www.w3.org/2000/svg">
    <rect x="0.5" y="0.5" width="66" height="38" rx="5.5" fill="#1F2937" stroke="#4B5563" />
    <path
        d="M20.5256 27L22.9403 12.4545H28.3949C29.5123 12.4545 30.4167 12.6629 31.108 13.0795C31.7992 13.4915 32.2798 14.062 32.5497 14.7912C32.8196 15.5156 32.8764 16.3419 32.7202 17.2699C32.5687 18.2027 32.2348 19.0312 31.7188 19.7557C31.2074 20.4801 30.5327 21.0507 29.6946 21.4673C28.8565 21.8793 27.8764 22.0852 26.7543 22.0852H23.1392L23.5014 19.919H26.7614C27.4148 19.919 27.9688 19.8054 28.4233 19.5781C28.8826 19.3509 29.2448 19.0384 29.5099 18.6406C29.7751 18.2429 29.9503 17.786 30.0355 17.2699C30.116 16.7538 30.09 16.2992 29.9574 15.9062C29.8248 15.5133 29.5668 15.2079 29.1832 14.9901C28.8045 14.7675 28.286 14.6562 27.6278 14.6562H25.2131L23.1605 27H20.5256ZM33.3771 27L35.7919 12.4545H41.2464C42.3639 12.4545 43.2706 12.6487 43.9666 13.0369C44.6626 13.4252 45.148 13.9697 45.4226 14.6705C45.6972 15.3665 45.7564 16.1785 45.6001 17.1065C45.4486 18.0346 45.1172 18.8419 44.6058 19.5284C44.0992 20.2102 43.4292 20.7382 42.5959 21.1122C41.7673 21.4863 40.7943 21.6733 39.6768 21.6733H35.7919L36.1612 19.4858H39.6982C40.3516 19.4858 40.9008 19.3958 41.3459 19.2159C41.791 19.0312 42.1413 18.7637 42.397 18.4134C42.6574 18.0582 42.8303 17.6226 42.9155 17.1065C42.996 16.5904 42.9652 16.1501 42.8232 15.7855C42.6858 15.4162 42.4231 15.1368 42.0348 14.9474C41.6513 14.7533 41.1328 14.6562 40.4794 14.6562H38.0646L36.0121 27H33.3771ZM41.9851 20.4091L44.4922 27H41.5518L39.1087 20.4091H41.9851Z"
        fill="white" />
</svg>