<svg width="35" height="35" viewBox="0 0 35 35" fill="none" xmlns="http://www.w3.org/2000/svg">
    <rect width="35" height="35" rx="8" fill="#27293D" />
    <path
        d="M7.12891 10.4199H11.3867C13.0013 10.4199 14.235 10.7878 15.0879 11.5234C15.5241 11.9076 15.8431 12.3763 16.0449 12.9297C16.2467 13.4766 16.3477 14.0951 16.3477 14.7852C16.3477 16.2174 15.931 17.3014 15.0977 18.0371C14.2708 18.7728 13.0339 19.1406 11.3867 19.1406H9.10156V25H7.12891V10.4199ZM11.3867 17.5195C11.875 17.5195 12.2949 17.4544 12.6465 17.3242C12.998 17.194 13.291 17.0182 13.5254 16.7969C14.0332 16.3151 14.2871 15.6413 14.2871 14.7754C14.2871 13.9095 14.0332 13.2357 13.5254 12.7539C13.0306 12.2786 12.3177 12.041 11.3867 12.041H9.10156V17.5195H11.3867ZM18.8965 10.4199H22.959C24.5671 10.4199 25.7943 10.7812 26.6406 11.5039C27.4935 12.2331 27.9199 13.265 27.9199 14.5996C27.9199 15.1139 27.8548 15.5664 27.7246 15.957C27.5944 16.3411 27.3991 16.6862 27.1387 16.9922C26.6243 17.6042 25.8854 17.9785 24.9219 18.1152C25.4492 18.2454 25.8822 18.4896 26.2207 18.8477C26.403 19.0365 26.5983 19.3034 26.8066 19.6484C27.0215 19.987 27.2721 20.4427 27.5586 21.0156L29.541 25H27.4219L25.6836 21.3184C25.4297 20.778 25.1888 20.3418 24.9609 20.0098C24.7396 19.6777 24.5312 19.4368 24.3359 19.2871C24.1341 19.1309 23.8965 19.0169 23.623 18.9453C23.3561 18.8737 23.0697 18.8379 22.7637 18.8379H20.8789V25H18.8965V10.4199ZM23.0371 17.2168C23.9811 17.2168 24.6842 17.0052 25.1465 16.582C25.6087 16.1589 25.8398 15.5176 25.8398 14.6582C25.8398 13.8053 25.5957 13.1543 25.1074 12.7051C24.873 12.4967 24.5768 12.334 24.2188 12.2168C23.8672 12.0996 23.4473 12.041 22.959 12.041H20.8789V17.2168H23.0371Z"
        fill="white" />
</svg>