<svg width="96" height="96" viewBox="0 0 48 48" fill="none" xmlns="http://www.w3.org/2000/svg">
<path d="M28 8H36C36.5304 8 37.0391 8.21071 37.4142 8.58579C37.7893 8.96086 38 9.46957 38 10V40C38 40.5304 37.7893 41.0391 37.4142 41.4142C37.0391 41.7893 36.5304 42 36 42H12C11.4696 42 10.9609 41.7893 10.5858 41.4142C10.2107 41.0391 10 40.5304 10 40V10C10 9.46957 10.2107 8.96086 10.5858 8.58579C10.9609 8.21071 11.4696 8 12 8H20M18 14H30M18 24H30M18 32H30M20 6V14H28V6H20Z" stroke="#9CA3AF" stroke-width="2" stroke-linecap="round" stroke-linejoin="round"/>
</svg>
