<svg width="96" height="96" viewBox="0 0 48 48" fill="none" xmlns="http://www.w3.org/2000/svg">
<path d="M14 18H24M30 18H34M14 24H18M24 24H34M10 10H38C38.5304 10 39.0391 10.2107 39.4142 10.5858C39.7893 10.9609 40 11.4696 40 12V30C40 30.5304 39.7893 31.0391 39.4142 31.4142C39.0391 31.7893 38.5304 32 38 32H24.768C24.2731 31.9996 23.7957 32.1828 23.428 32.514L17.668 37.698C17.5242 37.827 17.3462 37.9117 17.1553 37.9417C16.9645 37.9717 16.7691 37.9458 16.5926 37.8671C16.4162 37.7884 16.2664 37.6603 16.1612 37.4983C16.056 37.3362 16 37.1472 16 36.954V34C16 33.4696 15.7893 32.9609 15.4142 32.5858C15.0391 32.2107 14.5304 32 14 32H10C9.46957 32 8.96086 31.7893 8.58579 31.4142C8.21071 31.0391 8 30.5304 8 30V12C8 11.4696 8.21071 10.9609 8.58579 10.5858C8.96086 10.2107 9.46957 10 10 10Z" stroke="#9CA3AF" stroke-width="2" stroke-linecap="round" stroke-linejoin="round"/>
</svg>
